<svg xmlns="http://www.w3.org/2000/svg" width="16" height="15.98" viewBox="0 0 16 15.98"><path d="M-4035.23,823.013V818.5a3.489,3.489,0,0,1-.347-.143l-3.135,3.134-1.74-1.741,3.126-3.126a3.709,3.709,0,0,1-.157-.375H-4042v-2.461h4.516a3.713,3.713,0,0,1,.151-.361l-3.119-3.121,1.739-1.74,3.121,3.119c.117-.056.238-.106.36-.15v-4.5h2.463v4.5c.123.045.243.094.36.15l3.12-3.119,1.742,1.74-3.121,3.121a3.427,3.427,0,0,1,.15.361H-4026v2.461h-4.518a3.7,3.7,0,0,1-.156.375l3.126,3.126-1.741,1.741-3.134-3.134c-.114.053-.229.1-.347.143v4.517Zm-.15-5.078a3.179,3.179,0,0,0,.3.126l.308.109v4.382h1.538v-4.383l.309-.109a3.1,3.1,0,0,0,.3-.125l.293-.138,3.037,3.037,1.087-1.088-3.032-3.032.143-.3a3.219,3.219,0,0,0,.137-.328l.109-.308h4.383v-1.538h-4.382l-.11-.308a2.8,2.8,0,0,0-.131-.313l-.143-.3,3.027-3.026-1.088-1.087-3.026,3.026-.3-.143a3.2,3.2,0,0,0-.313-.131l-.308-.109v-4.362h-1.538v4.363l-.308.109a2.926,2.926,0,0,0-.314.131l-.3.141-3.025-3.025-1.088,1.087,3.025,3.027-.143.3a3.013,3.013,0,0,0-.131.315l-.11.306h-4.38v1.538h4.381l.109.307a3.443,3.443,0,0,0,.137.328l.144.3-3.033,3.032,1.087,1.088,3.037-3.038Z" transform="translate(4041.998 -807.033)"/></svg>